<svg width="49" height="14" viewBox="0 0 49 14" fill="none" xmlns="http://www.w3.org/2000/svg">
<path d="M0.0497032 6.25H6.3317V7.474H0.0497032V6.25ZM0.0497032 11.992C0.565703 11.5 0.979703 11.05 1.2917 10.642C1.6037 10.234 1.8317 9.844 1.9757 9.472C2.1197 9.088 2.1917 8.704 2.1917 8.32C2.1917 7.816 2.1017 7.354 1.9217 6.934C1.7537 6.502 1.5557 6.094 1.3277 5.71C1.1117 5.314 0.913703 4.918 0.733703 4.522C0.565703 4.114 0.481703 3.688 0.481703 3.244C0.481703 2.668 0.631703 2.146 0.931703 1.678C1.2437 1.198 1.6577 0.819999 2.1737 0.543999C2.6897 0.267999 3.2597 0.129999 3.8837 0.129999C4.5557 0.129999 5.1917 0.297999 5.7917 0.633999C6.4037 0.969999 6.9017 1.432 7.2857 2.02L6.4037 2.992C6.1157 2.524 5.7377 2.152 5.2697 1.876C4.8017 1.588 4.3277 1.444 3.8477 1.444C3.4877 1.444 3.1637 1.528 2.8757 1.696C2.5877 1.864 2.3597 2.098 2.1917 2.398C2.0237 2.686 1.9397 3.01 1.9397 3.37C1.9397 3.742 2.0177 4.108 2.1737 4.468C2.3417 4.828 2.5337 5.194 2.7497 5.566C2.9777 5.938 3.1697 6.346 3.3257 6.79C3.4937 7.222 3.5777 7.708 3.5777 8.248C3.5777 8.632 3.5177 9.01 3.3977 9.382C3.2897 9.742 3.1037 10.114 2.8397 10.498C2.5877 10.87 2.2457 11.29 1.8137 11.758C2.0537 11.698 2.2817 11.656 2.4977 11.632C2.7137 11.596 2.9297 11.578 3.1457 11.578C3.4697 11.578 3.7697 11.608 4.0457 11.668C4.3217 11.716 4.5917 11.77 4.8557 11.83C5.1197 11.878 5.3897 11.902 5.6657 11.902C5.9057 11.902 6.1457 11.878 6.3857 11.83C6.6257 11.77 6.8957 11.686 7.1957 11.578L7.5917 12.784C7.2917 12.94 6.9677 13.06 6.6197 13.144C6.2717 13.228 5.9297 13.27 5.5937 13.27C5.2337 13.27 4.8857 13.228 4.5497 13.144C4.2257 13.072 3.8957 13 3.5597 12.928C3.2237 12.856 2.8697 12.82 2.4977 12.82C2.1977 12.82 1.8617 12.85 1.4897 12.91C1.1177 12.97 0.769703 13.048 0.445703 13.144L0.0497032 11.992ZM19.5194 13.09C18.6794 13.09 17.8934 12.91 17.1614 12.55C16.4414 12.178 15.8114 11.686 15.2714 11.074C14.7314 10.45 14.3114 9.754 14.0114 8.986C13.7114 8.206 13.5614 7.402 13.5614 6.574C13.5614 5.71 13.7114 4.894 14.0114 4.126C14.3114 3.346 14.7254 2.656 15.2534 2.056C15.7934 1.456 16.4234 0.987999 17.1434 0.651999C17.8754 0.303999 18.6674 0.129999 19.5194 0.129999C20.7554 0.129999 21.7754 0.387999 22.5794 0.903999C23.3834 1.42 23.9894 2.092 24.3974 2.92L23.1554 3.784C22.7834 3.04 22.2734 2.488 21.6254 2.128C20.9774 1.768 20.2634 1.588 19.4834 1.588C18.8354 1.588 18.2474 1.726 17.7194 2.002C17.1914 2.278 16.7354 2.656 16.3514 3.136C15.9794 3.604 15.6914 4.138 15.4874 4.738C15.2954 5.338 15.1994 5.962 15.1994 6.61C15.1994 7.294 15.3074 7.942 15.5234 8.554C15.7514 9.154 16.0694 9.688 16.4774 10.156C16.8854 10.612 17.3594 10.972 17.8994 11.236C18.4394 11.5 19.0214 11.632 19.6454 11.632C20.3774 11.632 21.0734 11.446 21.7334 11.074C22.3934 10.702 23.0174 10.132 23.6054 9.364V11.038C22.4534 12.406 21.0914 13.09 19.5194 13.09ZM23.4074 7.852H20.6534V6.628H24.7754V13H23.4074V7.852ZM37.049 9.706C37.049 10.366 36.881 10.942 36.545 11.434C36.209 11.926 35.753 12.31 35.177 12.586C34.613 12.862 33.989 13 33.305 13H27.239V0.219999H33.593C34.193 0.219999 34.709 0.381999 35.141 0.705999C35.585 1.018 35.921 1.426 36.149 1.93C36.389 2.422 36.509 2.938 36.509 3.478C36.509 4.102 36.347 4.69 36.023 5.242C35.711 5.782 35.261 6.184 34.673 6.448C35.405 6.664 35.981 7.066 36.401 7.654C36.833 8.23 37.049 8.914 37.049 9.706ZM35.411 9.418C35.411 9.022 35.321 8.656 35.141 8.32C34.973 7.984 34.739 7.714 34.439 7.51C34.151 7.306 33.815 7.204 33.431 7.204H28.859V11.596H33.305C33.701 11.596 34.055 11.494 34.367 11.29C34.691 11.086 34.943 10.822 35.123 10.498C35.315 10.162 35.411 9.802 35.411 9.418ZM28.859 1.624V5.89H32.927C33.311 5.89 33.647 5.794 33.935 5.602C34.235 5.41 34.469 5.152 34.637 4.828C34.817 4.504 34.907 4.15 34.907 3.766C34.907 3.358 34.823 2.998 34.655 2.686C34.499 2.362 34.277 2.104 33.989 1.912C33.713 1.72 33.395 1.624 33.035 1.624H28.859ZM39.3152 13V0.219999H44.6432C45.2072 0.219999 45.7232 0.339999 46.1912 0.579999C46.6592 0.808 47.0672 1.12 47.4152 1.516C47.7632 1.9 48.0332 2.338 48.2252 2.83C48.4172 3.31 48.5132 3.802 48.5132 4.306C48.5132 5.002 48.3572 5.668 48.0452 6.304C47.7332 6.928 47.2952 7.438 46.7312 7.834C46.1672 8.218 45.5072 8.41 44.7512 8.41H40.9352V13H39.3152ZM40.9352 6.97H44.6612C45.1052 6.97 45.4892 6.85 45.8132 6.61C46.1492 6.37 46.4072 6.046 46.5872 5.638C46.7792 5.23 46.8752 4.786 46.8752 4.306C46.8752 3.802 46.7672 3.352 46.5512 2.956C46.3352 2.548 46.0532 2.23 45.7052 2.002C45.3572 1.774 44.9732 1.66 44.5532 1.66H40.9352V6.97Z" fill="#1D1F22"/>
</svg>
